<svg width="33" height="32" viewBox="0 0 33 32" fill="none" xmlns="http://www.w3.org/2000/svg">
<path d="M6.97518 15.2375C6.82744 14.9814 6.63071 14.7569 6.39622 14.5769C6.16173 14.3968 5.89408 14.2647 5.60854 14.1881C5.323 14.1115 5.02517 14.0919 4.73204 14.1304C4.43892 14.1689 4.15625 14.2648 3.90018 14.4125C3.6441 14.5602 3.41963 14.757 3.23958 14.9914C3.05953 15.2259 2.92743 15.4936 2.85082 15.7791C2.77421 16.0647 2.7546 16.3625 2.79309 16.6556C2.83159 16.9487 2.92744 17.2314 3.07518 17.4875L7.70018 25.5C8.90588 27.5427 10.8692 29.0268 13.1633 29.6297C15.4574 30.2325 17.8968 29.9053 19.9509 28.7193C22.0051 27.5333 23.508 25.5842 24.1329 23.296C24.7577 21.0078 24.454 18.5655 23.2877 16.5L21.1627 12.8125C20.846 12.3349 20.359 11.9961 19.8011 11.8653C19.2432 11.7345 18.6563 11.8215 18.1604 12.1085C17.6644 12.3956 17.2966 12.8611 17.1321 13.41C16.9676 13.959 17.0188 14.55 17.2752 15.0625" stroke="black" stroke-width="2" stroke-linecap="round" stroke-linejoin="round"/>
<path d="M13.8751 18.1875L9.12508 9.96249C8.97734 9.70641 8.78061 9.48194 8.54612 9.30189C8.31164 9.12185 8.04398 8.98975 7.75844 8.91314C7.4729 8.83653 7.17507 8.81691 6.88195 8.85541C6.58882 8.8939 6.30616 8.98975 6.05008 9.13749C5.794 9.28523 5.56953 9.48196 5.38948 9.71645C5.20943 9.95093 5.07733 10.2186 5.00072 10.5041C4.92412 10.7897 4.9045 11.0875 4.94299 11.3806C4.98149 11.6737 5.07734 11.9564 5.22508 12.2125L9.97508 20.4375" stroke="black" stroke-width="2" stroke-linecap="round" stroke-linejoin="round"/>
<path d="M19.275 18.5375L14.025 9.4375C13.7266 8.92033 13.235 8.54287 12.6583 8.38815C12.0817 8.23343 11.4672 8.31414 10.95 8.6125C10.4328 8.91087 10.0553 9.40247 9.90063 9.97914C9.74591 10.5558 9.82662 11.1703 10.125 11.6875" stroke="black" stroke-width="2" stroke-linecap="round" stroke-linejoin="round"/>
<path d="M12.875 8.46249L11.5875 6.22499C11.2891 5.70782 10.7975 5.33036 10.2208 5.17564C9.64417 5.02092 9.02966 5.10163 8.51249 5.39999C7.99531 5.69836 7.61785 6.18996 7.46313 6.76663C7.30841 7.34331 7.38912 7.95782 7.68749 8.475L7.98749 8.98749" stroke="black" stroke-width="2" stroke-linecap="round" stroke-linejoin="round"/>
<path d="M23.9998 23.9375C25.5254 22.556 26.5322 20.694 26.8529 18.661C27.1735 16.628 26.7887 14.5465 25.7623 12.7625L23.6373 9.08749C23.4895 8.83141 23.2928 8.60694 23.0583 8.4269C22.8238 8.24685 22.5562 8.11475 22.2706 8.03814C21.9851 7.96153 21.6873 7.94191 21.3942 7.98041C21.101 8.0189 20.8184 8.11476 20.5623 8.26249C20.3062 8.41023 20.0817 8.60696 19.9017 8.84145C19.7216 9.07593 19.5895 9.34359 19.5129 9.62913C19.4363 9.91467 19.4167 10.2125 19.4552 10.5056C19.4937 10.7987 19.5895 11.0814 19.7373 11.3375" stroke="black" stroke-width="2" stroke-linecap="round" stroke-linejoin="round"/>
<path d="M20.0249 11.8375L16.4874 5.7125C16.189 5.19533 15.6974 4.81786 15.1208 4.66314C14.5441 4.50843 13.9296 4.58913 13.4124 4.8875C12.8952 5.18587 12.5178 5.67746 12.363 6.25414C12.2083 6.83081 12.289 7.44533 12.5874 7.9625" stroke="black" stroke-width="2" stroke-linecap="round" stroke-linejoin="round"/>
<path d="M22.5999 1.41251L22.0874 3.33751" stroke="black" stroke-width="2" stroke-linecap="round" stroke-linejoin="round"/>
<path d="M26.3873 3.175L25.2373 4.8125" stroke="black" stroke-width="2" stroke-linecap="round" stroke-linejoin="round"/>
<path d="M29.325 6.1125L27.6875 7.2625" stroke="black" stroke-width="2" stroke-linecap="round" stroke-linejoin="round"/>
</svg>
