<svg width="24" height="24" viewBox="0 0 24 24" fill="none" xmlns="http://www.w3.org/2000/svg">
<path d="M20.25 7.5H3.75C3.33579 7.5 3 7.83579 3 8.25V11.25C3 11.6642 3.33579 12 3.75 12H20.25C20.6642 12 21 11.6642 21 11.25V8.25C21 7.83579 20.6642 7.5 20.25 7.5Z" stroke="black" stroke-width="1.5" stroke-linecap="round" stroke-linejoin="round"/>
<path d="M19.5 12V20.1C19.5 20.3387 19.421 20.5676 19.2803 20.7364C19.1397 20.9052 18.9489 21 18.75 21H5.25C5.05109 21 4.86032 20.9052 4.71967 20.7364C4.57902 20.5676 4.5 20.3387 4.5 20.1V12" stroke="black" stroke-width="1.5" stroke-linecap="round" stroke-linejoin="round"/>
<path d="M12 12V21" stroke="black" stroke-width="1.5" stroke-linecap="round" stroke-linejoin="round"/>
<path d="M16.2469 6.44043C15.1781 7.4998 12 7.4998 12 7.4998C12 7.4998 12 4.32168 13.0594 3.25293C13.4821 2.83024 14.0554 2.59277 14.6531 2.59277C15.2509 2.59277 15.8242 2.83024 16.2469 3.25293C16.6696 3.67562 16.907 4.2489 16.907 4.84668C16.907 5.44445 16.6696 6.01774 16.2469 6.44043V6.44043Z" stroke="black" stroke-width="1.5" stroke-linecap="round" stroke-linejoin="round"/>
<path d="M7.75293 6.44043C8.82168 7.4998 11.9998 7.4998 11.9998 7.4998C11.9998 7.4998 11.9998 4.32168 10.9404 3.25293C10.5177 2.83024 9.94445 2.59277 9.34668 2.59277C8.7489 2.59277 8.17561 2.83024 7.75293 3.25293C7.33024 3.67562 7.09277 4.2489 7.09277 4.84668C7.09277 5.44445 7.33024 6.01774 7.75293 6.44043V6.44043Z" stroke="black" stroke-width="1.5" stroke-linecap="round" stroke-linejoin="round"/>
</svg>
