<svg width="33" height="32" viewBox="0 0 33 32" fill="none" xmlns="http://www.w3.org/2000/svg">
<path d="M16.5 28C23.1274 28 28.5 22.6274 28.5 16C28.5 9.37258 23.1274 4 16.5 4C9.87258 4 4.5 9.37258 4.5 16C4.5 22.6274 9.87258 28 16.5 28Z" stroke="black" stroke-width="2" stroke-miterlimit="10"/>
<path d="M12 15C12.8284 15 13.5 14.3284 13.5 13.5C13.5 12.6716 12.8284 12 12 12C11.1716 12 10.5 12.6716 10.5 13.5C10.5 14.3284 11.1716 15 12 15Z" fill="black"/>
<path d="M21 15C21.8284 15 22.5 14.3284 22.5 13.5C22.5 12.6716 21.8284 12 21 12C20.1716 12 19.5 12.6716 19.5 13.5C19.5 14.3284 20.1716 15 21 15Z" fill="black"/>
<path d="M12 15C12.8284 15 13.5 14.3284 13.5 13.5C13.5 12.6716 12.8284 12 12 12C11.1716 12 10.5 12.6716 10.5 13.5C10.5 14.3284 11.1716 15 12 15Z" fill="black"/>
<path d="M21 15C21.8284 15 22.5 14.3284 22.5 13.5C22.5 12.6716 21.8284 12 21 12C20.1716 12 19.5 12.6716 19.5 13.5C19.5 14.3284 20.1716 15 21 15Z" fill="black"/>
<path d="M21.6998 22C21.1712 21.0892 20.4126 20.3333 19.5 19.8078C18.5874 19.2824 17.5529 19.0058 16.4998 19.0058C15.4468 19.0058 14.4122 19.2824 13.4996 19.8078C12.587 20.3333 11.8284 21.0892 11.2998 22" stroke="black" stroke-width="2" stroke-linecap="round" stroke-linejoin="round"/>
</svg>
