<svg width="64" height="64" viewBox="0 0 64 64" fill="none" xmlns="http://www.w3.org/2000/svg">
<circle cx="32" cy="32" r="31.5" fill="white" stroke="#E5A500"/>
<path d="M37.8711 27.7383C37.168 25.3477 35.2344 23.8711 32.457 23.8711C28.5195 23.8711 25.8477 26.8945 25.8477 32.2383C25.8477 37.6172 28.4492 40.6758 32.4922 40.6758C36.1309 40.6758 38.293 38.6191 38.3633 35.4023H32.8438V31.4297H43.4609V34.5938C43.4609 41.2734 38.8906 45.3516 32.457 45.3516C25.3203 45.3516 20.4688 40.3594 20.4688 32.3086C20.4688 24.0469 25.6367 19.1953 32.3516 19.1953C38.082 19.1953 42.5117 22.7109 43.2148 27.7383H37.8711Z" fill="#E5A500"/>
</svg>
