<svg width="32" height="32" viewBox="0 0 32 32" fill="none" xmlns="http://www.w3.org/2000/svg">
<path fill-rule="evenodd" clip-rule="evenodd" d="M28.6802 7.65991L25.9602 19.2299H10.3702L7.66016 7.65991H28.6802Z" stroke="#333333" stroke-width="1.7" stroke-linecap="square" stroke-linejoin="round"/>
<path d="M23.5199 26.9199C24.7018 26.9199 25.6599 25.9618 25.6599 24.7799C25.6599 23.598 24.7018 22.6399 23.5199 22.6399C22.338 22.6399 21.3799 23.598 21.3799 24.7799C21.3799 25.9618 22.338 26.9199 23.5199 26.9199Z" stroke="#333333" stroke-width="1.7" stroke-linecap="square" stroke-linejoin="round"/>
<path d="M12.8099 26.9199C13.9918 26.9199 14.9499 25.9618 14.9499 24.7799C14.9499 23.598 13.9918 22.6399 12.8099 22.6399C11.628 22.6399 10.6699 23.598 10.6699 24.7799C10.6699 25.9618 11.628 26.9199 12.8099 26.9199Z" stroke="#333333" stroke-width="1.7" stroke-linecap="square" stroke-linejoin="round"/>
<path d="M3 4H6.8L8.56 11.5" stroke="#333333" stroke-width="1.7" stroke-linecap="square" stroke-linejoin="round"/>
</svg>
