<svg width="32" height="32" viewBox="0 0 32 32" fill="none" xmlns="http://www.w3.org/2000/svg">
<mask id="path-1-inside-1_286_54" fill="white">
<path fill-rule="evenodd" clip-rule="evenodd" d="M5.33398 26.6641C5.33398 25.0996 5.6385 23.6878 6.18627 22.5038C6.72953 21.3246 7.53348 20.3517 8.50799 19.6943C9.48731 19.0315 10.6522 18.6641 11.946 18.6641H20.0562C21.3491 18.6641 22.5149 19.0315 23.4942 19.6943C24.4687 20.3517 25.2727 21.3246 25.8159 22.5038C26.3637 23.6889 26.6673 25.0985 26.6673 26.6641"/>
</mask>
<path d="M3.33398 26.6641V28.6641H7.33398V26.6641H3.33398ZM6.18627 22.5038L8.00142 23.3436L8.00278 23.3406L6.18627 22.5038ZM8.50799 19.6943L9.62646 21.3523L9.62904 21.3506L8.50799 19.6943ZM23.4942 19.6943L22.3732 21.3506L22.3757 21.3523L23.4942 19.6943ZM25.8159 22.5038L23.9994 23.3406L24.0005 23.3429L25.8159 22.5038ZM24.6673 26.6641V28.6641H28.6673V26.6641H24.6673ZM7.33398 26.6641C7.33398 25.3561 7.58877 24.2355 8.00142 23.3436L4.37113 21.664C3.68823 23.14 3.33398 24.8431 3.33398 26.6641H7.33398ZM8.00278 23.3406C8.40939 22.458 8.98649 21.784 9.62646 21.3523L7.38952 18.0363C6.08047 18.9194 5.04968 20.1911 4.36976 21.667L8.00278 23.3406ZM9.62904 21.3506C10.2712 20.916 11.0443 20.6641 11.946 20.6641V16.6641C10.2602 16.6641 8.70345 17.147 7.38694 18.038L9.62904 21.3506ZM11.946 20.6641H20.0562V16.6641H11.946V20.6641ZM20.0562 20.6641C20.9572 20.6641 21.7311 20.916 22.3732 21.3506L24.6153 18.038C23.2986 17.1469 21.741 16.6641 20.0562 16.6641V20.6641ZM22.3757 21.3523C23.0157 21.784 23.5928 22.458 23.9994 23.3406L27.6324 21.667C26.9525 20.1911 25.9217 18.9194 24.6127 18.0363L22.3757 21.3523ZM24.0005 23.3429C24.4133 24.236 24.6673 25.3546 24.6673 26.6641H28.6673C28.6673 24.8424 28.3141 23.1417 27.6314 21.6647L24.0005 23.3429Z" fill="black" mask="url(#path-1-inside-1_286_54)"/>
<path fill-rule="evenodd" clip-rule="evenodd" d="M21.3327 10.6693C21.3327 9.25478 20.7708 7.89823 19.7706 6.89803C18.7704 5.89784 17.4138 5.33594 15.9993 5.33594C14.5849 5.33594 13.2283 5.89784 12.2281 6.89803C11.2279 7.89823 10.666 9.25478 10.666 10.6693C10.666 12.0838 11.2279 13.4403 12.2281 14.4405C13.2283 15.4407 14.5849 16.0026 15.9993 16.0026C17.4138 16.0026 18.7704 15.4407 19.7706 14.4405C20.7708 13.4403 21.3327 12.0838 21.3327 10.6693Z" stroke="black" stroke-width="2"/>
</svg>
