<svg width="24" height="24" viewBox="0 0 24 24" fill="none" xmlns="http://www.w3.org/2000/svg">
<g id="ic24/cart">
<path id="Vector" fill-rule="evenodd" clip-rule="evenodd" d="M20.84 6.99268L18.9335 15.1024H8.00592L6.10638 6.99268H20.84Z" stroke="black" stroke-width="1.5" stroke-linecap="square" stroke-linejoin="round"/>
<path id="Vector_2" d="M17.2232 20.4927C18.0516 20.4927 18.7232 19.8211 18.7232 18.9927C18.7232 18.1642 18.0516 17.4927 17.2232 17.4927C16.3948 17.4927 15.7232 18.1642 15.7232 18.9927C15.7232 19.8211 16.3948 20.4927 17.2232 20.4927Z" stroke="black" stroke-width="1.5" stroke-linecap="square" stroke-linejoin="round"/>
<path id="Vector_3" d="M9.71619 20.4927C10.5446 20.4927 11.2162 19.8211 11.2162 18.9927C11.2162 18.1642 10.5446 17.4927 9.71619 17.4927C8.88776 17.4927 8.21619 18.1642 8.21619 18.9927C8.21619 19.8211 8.88776 20.4927 9.71619 20.4927Z" stroke="black" stroke-width="1.5" stroke-linecap="square" stroke-linejoin="round"/>
<path id="Vector_4" d="M2.84003 4.42725H5.50358L6.73722 9.68422" stroke="black" stroke-width="1.5" stroke-linecap="round" stroke-linejoin="round"/>
</g>
</svg>
