<svg width="18" height="18" viewBox="0 0 18 18" fill="none" xmlns="http://www.w3.org/2000/svg">
<path d="M7.875 12.75C10.5674 12.75 12.75 10.5674 12.75 7.875C12.75 5.18261 10.5674 3 7.875 3C5.18261 3 3 5.18261 3 7.875C3 10.5674 5.18261 12.75 7.875 12.75Z" stroke="#999999" stroke-width="1.5" stroke-linecap="round" stroke-linejoin="round"/>
<path d="M12.5303 11.4697L12 10.9393L10.9393 12L11.4697 12.5303L12.5303 11.4697ZM15.2197 16.2803C15.5126 16.5732 15.9874 16.5732 16.2803 16.2803C16.5732 15.9874 16.5732 15.5126 16.2803 15.2197L15.2197 16.2803ZM11.4697 12.5303L15.2197 16.2803L16.2803 15.2197L12.5303 11.4697L11.4697 12.5303Z" fill="#999999"/>
</svg>
