<svg width="36" height="36" viewBox="0 0 36 36" fill="none" xmlns="http://www.w3.org/2000/svg">
<g clip-path="url(#clip0_141_21)">
<path d="M26.0806 26.0826L21.9606 21.9626M16.4666 23.3356C17.3684 23.3356 18.2614 23.1579 19.0945 22.8128C19.9276 22.4677 20.6847 21.9619 21.3223 21.3243C21.96 20.6866 22.4658 19.9296 22.8109 19.0964C23.156 18.2633 23.3336 17.3703 23.3336 16.4686C23.3336 15.5668 23.156 14.6738 22.8109 13.8407C22.4658 13.0075 21.96 12.2505 21.3223 11.6129C20.6847 10.9752 19.9276 10.4694 19.0945 10.1243C18.2614 9.77918 17.3684 9.60156 16.4666 9.60156C14.6454 9.60156 12.8987 10.325 11.6109 11.6129C10.3231 12.9007 9.59961 14.6473 9.59961 16.4686C9.59961 18.2898 10.3231 20.0365 11.6109 21.3243C12.8987 22.6121 14.6454 23.3356 16.4666 23.3356Z" stroke="#F9482D" stroke-width="1.7" stroke-linecap="round"/>
</g>
<defs>
<clipPath id="clip0_141_21">
<rect width="36" height="36" fill="white"/>
</clipPath>
</defs>
</svg>
